# xmcd
#
# Track frame offsets:
#	150
#	16590
#	31837
#	48457
#	63855
#	83050
#	99732
#	114487
#	129765
#	147290
#	161597
#	179872
#
# Disc length: 2679
#
# Revision: 1
# Processed by: cddbd v1.5.1PL0 Copyright (c) Steve Scherf et al.
# Submitted via: audiograbber 1.83.01
# Normalized: r0:DSETVAR1
#
DISCID=950a750c
DTITLE=Various Artist - Today's Best Country
DYEAR=1991
DGENRE=Country
TTITLE0=Alan Jackson - Here In The Real World
TTITLE1=Kathy Mattea - Eighteen Wheels And A Dozen Roses
TTITLE2=Mark Chesnutt - Too Cold At Home
TTITLE3=Highway 101 - Who's Lonely Now
TTITLE4=Vince Gill - When I Call Your Name
TTITLE5=Shelby Lynne - What About The Love We Made
TTITLE6=Tanya Tucker With T. Graham Brown - Don't Go Out
TTITLE7=Ricky Van Shelton - Life Turned Her That Way
TTITLE8=Mary-Chapin Carpenter - Quittin' Time
TTITLE9=Alabama - Southern Star
TTITLE10=Rosanne Cash - Runaway Train
TTITLE11=K.T. Oslin - Hold Me
EXTD=
EXTT0=
EXTT1=
EXTT2=
EXTT3=
EXTT4=
EXTT5=
EXTT6=
EXTT7=
EXTT8=
EXTT9=
EXTT10=
EXTT11=
PLAYORDER=
